<svg width="50" height="50" viewBox="0 0 50 50" fill="none" xmlns="http://www.w3.org/2000/svg">
<path d="M25 0C25.4736 0 25.9278 0.188137 26.2627 0.523023C26.5976 0.85791 26.7857 1.31211 26.7857 1.78571V5.35714C26.7857 5.83074 26.5976 6.28495 26.2627 6.61983C25.9278 6.95472 25.4736 7.14286 25 7.14286C24.5264 7.14286 24.0722 6.95472 23.7373 6.61983C23.4024 6.28495 23.2143 5.83074 23.2143 5.35714V1.78571C23.2143 1.31211 23.4024 0.85791 23.7373 0.523023C24.0722 0.188137 24.5264 0 25 0ZM25 35.7143C27.8416 35.7143 30.5668 34.5855 32.5761 32.5761C34.5855 30.5668 35.7143 27.8416 35.7143 25C35.7143 22.1584 34.5855 19.4332 32.5761 17.4239C30.5668 15.4145 27.8416 14.2857 25 14.2857C22.1584 14.2857 19.4332 15.4145 17.4239 17.4239C15.4145 19.4332 14.2857 22.1584 14.2857 25C14.2857 27.8416 15.4145 30.5668 17.4239 32.5761C19.4332 34.5855 22.1584 35.7143 25 35.7143ZM25 32.1429C23.1056 32.1429 21.2888 31.3903 19.9492 30.0508C18.6097 28.7112 17.8571 26.8944 17.8571 25C17.8571 23.1056 18.6097 21.2888 19.9492 19.9492C21.2888 18.6097 23.1056 17.8571 25 17.8571C26.8944 17.8571 28.7112 18.6097 30.0508 19.9492C31.3903 21.2888 32.1429 23.1056 32.1429 25C32.1429 26.8944 31.3903 28.7112 30.0508 30.0508C28.7112 31.3903 26.8944 32.1429 25 32.1429ZM48.2143 26.7857C48.6879 26.7857 49.1421 26.5976 49.477 26.2627C49.8119 25.9278 50 25.4736 50 25C50 24.5264 49.8119 24.0722 49.477 23.7373C49.1421 23.4024 48.6879 23.2143 48.2143 23.2143H44.6429C44.1693 23.2143 43.715 23.4024 43.3802 23.7373C43.0453 24.0722 42.8571 24.5264 42.8571 25C42.8571 25.4736 43.0453 25.9278 43.3802 26.2627C43.715 26.5976 44.1693 26.7857 44.6429 26.7857H48.2143ZM25 42.8571C25.4736 42.8571 25.9278 43.0453 26.2627 43.3802C26.5976 43.715 26.7857 44.1693 26.7857 44.6429V48.2143C26.7857 48.6879 26.5976 49.1421 26.2627 49.477C25.9278 49.8119 25.4736 50 25 50C24.5264 50 24.0722 49.8119 23.7373 49.477C23.4024 49.1421 23.2143 48.6879 23.2143 48.2143V44.6429C23.2143 44.1693 23.4024 43.715 23.7373 43.3802C24.0722 43.0453 24.5264 42.8571 25 42.8571ZM5.35714 26.7857C5.83074 26.7857 6.28495 26.5976 6.61983 26.2627C6.95472 25.9278 7.14286 25.4736 7.14286 25C7.14286 24.5264 6.95472 24.0722 6.61983 23.7373C6.28495 23.4024 5.83074 23.2143 5.35714 23.2143H1.78571C1.31211 23.2143 0.85791 23.4024 0.523023 23.7373C0.188137 24.0722 0 24.5264 0 25C0 25.4736 0.188137 25.9278 0.523023 26.2627C0.85791 26.5976 1.31211 26.7857 1.78571 26.7857H5.35714ZM7.66429 7.66429C7.83016 7.49799 8.02722 7.36605 8.24417 7.27603C8.46111 7.186 8.69369 7.13966 8.92857 7.13966C9.16346 7.13966 9.39603 7.186 9.61298 7.27603C9.82992 7.36605 10.027 7.49799 10.1929 7.66429L13.7643 11.2357C13.9303 11.4017 14.062 11.5988 14.1519 11.8158C14.2417 12.0327 14.288 12.2652 14.288 12.5C14.288 12.7348 14.2417 12.9673 14.1519 13.1842C14.062 13.4012 13.9303 13.5983 13.7643 13.7643C13.5983 13.9303 13.4012 14.062 13.1842 14.1519C12.9673 14.2417 12.7348 14.288 12.5 14.288C12.2652 14.288 12.0327 14.2417 11.8158 14.1519C11.5988 14.062 11.4017 13.9303 11.2357 13.7643L7.66429 10.1929C7.49799 10.027 7.36605 9.82992 7.27603 9.61298C7.186 9.39603 7.13966 9.16346 7.13966 8.92857C7.13966 8.69369 7.186 8.46111 7.27603 8.24417C7.36605 8.02722 7.49799 7.83016 7.66429 7.66429ZM10.1929 42.3357C10.0271 42.5017 9.83019 42.6335 9.61348 42.7234C9.39677 42.8134 9.16447 42.8598 8.92983 42.8599C8.6952 42.8601 8.46283 42.814 8.24599 42.7244C8.02916 42.6348 7.8321 42.5033 7.66607 42.3375C7.50004 42.1717 7.3683 41.9748 7.27835 41.7581C7.18841 41.5414 7.14203 41.3091 7.14186 41.0745C7.1417 40.8398 7.18775 40.6075 7.27739 40.3906C7.36702 40.1738 7.49849 39.9767 7.66429 39.8107L11.2357 36.2393C11.4015 36.0733 11.5984 35.9415 11.8151 35.8516C12.0318 35.7616 12.2641 35.7152 12.4987 35.7151C12.7334 35.7149 12.9657 35.761 13.1826 35.8506C13.3994 35.9402 13.5965 36.0717 13.7625 36.2375C13.9285 36.4033 14.0603 36.6002 14.1502 36.8169C14.2402 37.0336 14.2865 37.2659 14.2867 37.5005C14.2869 37.7352 14.2408 37.9675 14.1512 38.1844C14.0615 38.4012 13.9301 38.5983 13.7643 38.7643L10.1929 42.3357ZM42.3357 7.66429C42.1698 7.49799 41.9728 7.36605 41.7558 7.27603C41.5389 7.186 41.3063 7.13966 41.0714 7.13966C40.8365 7.13966 40.604 7.186 40.387 7.27603C40.1701 7.36605 39.973 7.49799 39.8071 7.66429L36.2357 11.2357C35.9004 11.571 35.712 12.0258 35.712 12.5C35.712 12.9742 35.9004 13.429 36.2357 13.7643C36.571 14.0996 37.0258 14.288 37.5 14.288C37.9742 14.288 38.429 14.0996 38.7643 13.7643L42.3357 10.1929C42.502 10.027 42.6339 9.82992 42.724 9.61298C42.814 9.39603 42.8603 9.16346 42.8603 8.92857C42.8603 8.69369 42.814 8.46111 42.724 8.24417C42.6339 8.02722 42.502 7.83016 42.3357 7.66429ZM39.8071 42.3357C40.142 42.671 40.5963 42.8596 41.0702 42.8599C41.544 42.8603 41.9986 42.6723 42.3339 42.3375C42.6692 42.0027 42.8578 41.5483 42.8581 41.0745C42.8585 40.6006 42.6706 40.146 42.3357 39.8107L38.7643 36.2393C38.4295 35.904 37.9751 35.7154 37.5013 35.7151C37.0274 35.7147 36.5728 35.9027 36.2375 36.2375C35.9022 36.5723 35.7136 37.0267 35.7133 37.5005C35.713 37.9744 35.9009 38.429 36.2357 38.7643L39.8071 42.3357Z" fill="#FFB800"/>
</svg>
