<svg width="50" height="50" viewBox="0 0 50 50" fill="none" xmlns="http://www.w3.org/2000/svg">
<path d="M10.4845 33.9919C15.5962 42.6062 26.9172 45.5574 35.7712 40.584C38.1518 39.2501 40.1961 37.4156 41.7547 35.2145C41.8754 35.0441 41.9543 34.849 41.9853 34.6442C42.0162 34.4394 41.9983 34.2304 41.933 34.0334C41.8677 33.8364 41.7568 33.6567 41.6087 33.508C41.4607 33.3594 41.2795 33.2458 41.0791 33.1762C34.1074 30.7489 30.3726 27.9363 28.2054 23.91C25.9252 19.6731 25.3348 15.0329 26.9302 8.67117C26.9816 8.46641 26.9831 8.25278 26.9345 8.04737C26.8858 7.84196 26.7885 7.65048 26.6501 7.48824C26.5118 7.32601 26.3364 7.19754 26.1379 7.1131C25.9394 7.02866 25.7233 6.9906 25.507 7.00197C22.6021 7.15409 19.7755 7.97289 17.2582 9.39142C8.40423 14.3648 5.37086 25.3794 10.4845 33.9919ZM25.7494 25.1633C28.0628 29.465 31.8754 32.546 38.3659 35.0651C37.2272 36.331 35.8815 37.4054 34.3831 38.245C30.772 40.2291 26.5018 40.7459 22.5011 39.6831C18.5004 38.6203 15.0927 36.0638 13.0191 32.5695C10.9454 29.0752 10.3734 24.9258 11.4275 21.0234C12.4816 17.121 15.0766 13.7813 18.6481 11.7305C20.2466 10.8303 21.9959 10.2116 23.8154 9.90281C22.618 15.9962 23.3897 20.7841 25.7494 25.1633Z" fill="#FFE898"/>
<path fill-rule="evenodd" clip-rule="evenodd" d="M35.7712 40.584C38.1518 39.2501 40.1961 37.4156 41.7547 35.2145C41.8754 35.0441 41.9543 34.849 41.9853 34.6442C42.0162 34.4394 41.9983 34.2304 41.933 34.0334C41.8677 33.8364 41.7568 33.6567 41.6087 33.508C41.4607 33.3594 41.2795 33.2458 41.0791 33.1762C34.1074 30.7489 30.3726 27.9363 28.2053 23.91C25.9252 19.6731 25.3348 15.0329 26.9302 8.67117C26.9816 8.46641 26.9831 8.25278 26.9345 8.04737C26.8858 7.84196 26.7885 7.65048 26.6501 7.48824C26.5118 7.32601 26.3364 7.19754 26.1379 7.1131C25.9394 7.02866 25.7233 6.9906 25.507 7.00197C22.6021 7.15409 19.7755 7.97289 17.2582 9.39142C8.40424 14.3648 5.37086 25.3794 10.4845 33.9919C15.5962 42.6062 26.9172 45.5574 35.7712 40.584ZM38.3659 35.0651C38.246 35.1984 38.1238 35.3296 37.9993 35.4587C36.942 36.5548 35.7237 37.4939 34.3831 38.245C30.772 40.2291 26.5018 40.7459 22.5011 39.6831C18.5004 38.6203 15.0927 36.0638 13.0191 32.5695C10.9454 29.0752 10.3734 24.9258 11.4275 21.0234C12.4816 17.121 15.0766 13.7813 18.6481 11.7305C20.0913 10.9178 21.6573 10.3345 23.287 10.0016C23.4624 9.96575 23.6386 9.93282 23.8154 9.90281C23.7808 10.0789 23.7478 10.2539 23.7165 10.4279C22.6639 16.2726 23.4579 20.9107 25.7494 25.1633C28.0031 29.354 31.6795 32.386 37.8684 34.8688C38.0325 34.9346 38.1983 35 38.3659 35.0651Z" fill="#FFE898"/>
</svg>
