<svg width="50" height="50" viewBox="0 0 50 50" fill="none" xmlns="http://www.w3.org/2000/svg">
<g clip-path="url(#clip0_25_2)">
<path d="M28.0883 17.2854C35.8044 17.2854 40.1805 22.1293 40.8159 27.9833H41.01C45.9746 27.9833 50.0001 31.7925 50.0001 36.4916C50.0001 41.1908 45.9746 45 41.01 45H15.1666C10.202 45 6.17651 41.1908 6.17651 36.4916C6.17651 31.7925 10.202 27.9833 15.1666 27.9833H15.3607C16.0024 22.0893 20.3722 17.2854 28.0883 17.2854ZM28.0883 20.3648C22.9234 20.3648 18.4252 24.2757 18.4252 29.68C18.4252 30.5361 17.6301 31.2074 16.7192 31.2074H14.9976C11.8548 31.2043 9.30677 33.6062 9.30677 36.5625C9.30677 39.5187 11.8548 41.9206 14.9976 41.9206H41.179C44.3218 41.9206 46.8698 39.5187 46.8698 36.5625C46.8698 33.6062 44.3218 31.2043 41.179 31.2043H39.4574C38.5496 31.2074 37.7514 30.5361 37.7514 29.68C37.7514 24.2079 33.2532 20.3648 28.0883 20.3648Z" fill="#DBDBDB"/>
<path d="M5.55979 25.5998C5.68039 25.9409 5.6753 26.3128 5.54541 26.6505C5.41552 26.9882 5.1691 27.2703 4.84922 27.4474L4.58941 27.5583L2.08208 28.4082C1.71206 28.5356 1.30692 28.5217 0.946791 28.3694C0.586662 28.217 0.297765 27.9373 0.137238 27.5854C-0.0232895 27.2336 -0.043758 26.8353 0.0798803 26.4693C0.203519 26.1034 0.46226 25.7964 0.804933 25.609L1.06161 25.4982L3.57208 24.6483C3.96435 24.5158 4.39402 24.542 4.76671 24.721C5.1394 24.9 5.42464 25.2172 5.55979 25.6029V25.5998ZM21.5773 12.6663C22.6197 13.1652 23.5368 13.815 24.3131 14.5756C23.0423 14.8312 21.8528 15.2222 20.7572 15.7303C19.3434 14.8932 17.6785 14.5639 16.0457 14.7984C14.4129 15.0329 12.9131 15.8167 11.8017 17.0165C10.6902 18.2163 10.0356 19.7579 9.94943 21.379C9.86323 23 10.3507 24.6004 11.3288 25.9077C10.2959 26.2095 9.32548 26.6499 8.43336 27.2011C7.22231 25.3463 6.66134 23.1527 6.83605 20.9549C7.01077 18.7572 7.91156 16.676 9.40099 15.029C10.8904 13.382 12.8867 12.2595 15.0852 11.8329C17.2837 11.4063 19.5637 11.699 21.5773 12.6663ZM2.78638 13.1898L3.04619 13.2884L5.43145 14.4308C5.78308 14.599 6.058 14.8905 6.20211 15.2481C6.34622 15.6056 6.34907 16.0033 6.21011 16.3628C6.07116 16.7223 5.80045 17.0177 5.45126 17.1907C5.10208 17.3637 4.69971 17.4019 4.32334 17.2978L4.0604 17.1992L1.67514 16.0568C1.32351 15.8886 1.04859 15.5971 0.90448 15.2395C0.760373 14.882 0.757518 14.4843 0.896477 14.1248C1.03544 13.7653 1.30614 13.4699 1.65533 13.2969C2.00451 13.1239 2.40688 13.0857 2.78325 13.1898H2.78638ZM24.9267 5.87628C25.2562 6.03446 25.5189 6.30147 25.6688 6.63071C25.8187 6.95994 25.8463 7.3305 25.7468 7.67772L25.6466 7.93639L24.4853 10.2829C24.3144 10.6288 24.018 10.8993 23.6546 11.041C23.2911 11.1828 22.8869 11.1856 22.5214 11.0489C22.156 10.9122 21.8558 10.6459 21.6799 10.3024C21.504 9.95887 21.4652 9.56304 21.571 9.19278L21.6712 8.93104L22.8357 6.58454C23.0177 6.21809 23.3402 5.9377 23.7322 5.80491C24.1243 5.67212 24.5539 5.69779 24.9267 5.87628ZM13.063 5.77773L13.1788 6.03024L14.0428 8.49992C14.1698 8.86346 14.1539 9.26058 13.9984 9.61323C13.8429 9.96587 13.5589 10.2485 13.2022 10.4056C12.8456 10.5627 12.4421 10.5829 12.0711 10.4621C11.7001 10.3414 11.3885 10.0885 11.1974 9.75323L11.0847 9.50072L10.2207 7.03413C10.0957 6.67145 10.1126 6.27595 10.2681 5.92485C10.4235 5.57374 10.7064 5.29223 11.0615 5.13527C11.4166 4.9783 11.8184 4.95716 12.1885 5.07595C12.5586 5.19474 12.8704 5.44495 13.063 5.77773Z" fill="#FFB800"/>
</g>
<defs>
<clipPath id="clip0_25_2">
<rect width="50" height="50" fill="white"/>
</clipPath>
</defs>
</svg>
