<svg width="50" height="50" viewBox="0 0 50 50" fill="none" xmlns="http://www.w3.org/2000/svg">
<path d="M21.8757 17.3096C14.1723 17.3096 9.80341 22.1523 9.16901 27.9981H8.97525C4.01883 27.9981 -6.10352e-05 31.804 -6.10352e-05 36.499C-6.10352e-05 41.1941 4.01883 45 8.97525 45H34.7762C39.7326 45 43.7515 41.1941 43.7515 36.499C43.7515 31.9763 40.0263 28.2811 35.323 28.0135L34.5824 27.9981C33.9417 22.1123 29.5791 17.3096 21.8757 17.3096ZM21.8757 20.3863C27.0321 20.3863 31.5229 24.2937 31.5229 29.6933C31.5229 30.5487 32.3167 31.2194 33.2261 31.2194H34.9449C38.0825 31.2194 40.6264 33.6162 40.6264 36.5729C40.6264 39.5234 38.0825 41.9233 34.9449 41.9233H8.8065C5.66889 41.9233 3.12505 39.5265 3.12505 36.5698C3.12505 33.6162 5.66889 31.2194 8.8065 31.2194H10.5253C11.4316 31.2194 12.2285 30.5487 12.2285 29.6933C12.2285 24.226 16.7193 20.3863 21.8757 20.3863Z" fill="#DBDBDB"/>
<path d="M37.992 5.00271C35.9063 5.11407 33.877 5.70975 32.0699 6.74105C30.5612 7.59574 29.2384 8.73483 28.1772 10.0932C27.116 11.4515 26.3372 13.0025 25.8853 14.6574C27.0429 14.9017 28.1681 15.2764 29.2385 15.7743C29.5302 14.3699 30.1449 13.0501 31.0356 11.9162C31.9262 10.7822 33.069 9.86441 34.3762 9.23319C34.9204 8.95105 35.4784 8.69538 36.0481 8.46709C35.7794 12.2453 36.1606 16.1066 38.0044 19.0664C39.817 21.6908 42.1546 23.4445 45.9985 24.906C45.561 25.2875 45.0922 25.6321 44.5922 25.949C43.6234 26.5582 42.6609 27.0289 41.7171 27.3643C42.7629 28.0442 43.6896 28.8869 44.4609 29.8595C46.5498 28.8771 48.3406 27.3729 49.6549 25.4967C49.825 25.2526 49.9361 24.9734 49.9795 24.6804C50.0228 24.3875 49.9973 24.0886 49.905 23.8069C49.8126 23.5252 49.6558 23.2681 49.4467 23.0554C49.2375 22.8427 48.9816 22.68 48.6986 22.58C44.3984 21.0662 42.0827 19.3617 40.7608 16.8696C39.3139 14.1529 39.0451 11.27 40.0045 7.39332C40.0771 7.10038 40.0791 6.79478 40.0103 6.50096C39.9415 6.20714 39.8038 5.93325 39.6082 5.70121C39.4126 5.46918 39.1645 5.28543 38.8839 5.16467C38.6032 5.04392 38.2978 4.98643 37.992 5.00271Z" fill="#FFE898"/>
</svg>
