<svg width="50" height="50" viewBox="0 0 50 50" fill="none" xmlns="http://www.w3.org/2000/svg">
<path fill-rule="evenodd" clip-rule="evenodd" d="M36.1795 25.4063L35.8369 22.1138C35.5517 19.3722 34.4478 17.0363 32.7279 15.4053C31.0416 13.8062 28.5389 12.6685 25.0014 12.6685C21.4556 12.6685 18.9543 13.7998 17.2722 15.391C15.5577 17.0128 14.4514 19.3454 14.1631 22.1142L13.8202 25.4063H10.2511C9.39237 25.4052 8.54182 25.5716 7.74804 25.896C6.95425 26.2205 6.23278 26.6966 5.62482 27.2972C5.01687 27.8978 4.53434 28.6112 4.2048 29.3965C3.87585 30.1805 3.70578 31.0208 3.70425 31.8697C3.706 32.7185 3.87625 33.5587 4.20531 34.3425C4.53495 35.1276 5.01751 35.8408 5.62545 36.4412C6.23338 37.0416 6.95477 37.5176 7.74844 37.8419C8.54212 38.1663 9.39252 38.3326 10.2511 38.3315L10.2561 38.3315L39.7489 38.3315C40.6075 38.3326 41.4579 38.1663 42.2516 37.8419C43.0452 37.5176 43.7666 37.0416 44.3746 36.4412C44.9825 35.8408 45.465 35.1276 45.7947 34.3425C46.1237 33.5589 46.2939 32.719 46.2957 31.8704C46.2943 31.0212 46.1242 30.1807 45.7952 29.3965C45.4657 28.6112 44.9831 27.8978 44.3752 27.2972C43.7672 26.6966 43.0457 26.2204 42.252 25.896C41.4582 25.5716 40.6076 25.4052 39.7489 25.4063L39.7439 25.4063L36.1795 25.4063ZM50 31.8703C49.9982 33.2023 49.7314 34.521 49.215 35.751C48.6986 36.9809 47.9427 38.0981 46.9903 39.0388C46.0379 39.9794 44.9078 40.725 43.6645 41.2331C42.4211 41.7412 41.0889 42.0018 39.7439 42H10.2561C8.9111 42.0018 7.57888 41.7412 6.33553 41.2331C5.09219 40.725 3.96207 39.9794 3.0097 39.0388C2.05733 38.0981 1.30136 36.9809 0.784957 35.751C0.268552 34.521 0.00182278 33.2023 0 31.8703C0.00145823 30.538 0.267918 29.219 0.78416 27.9887C1.3004 26.7584 2.05631 25.6409 3.00872 24.7C3.96113 23.7591 5.09137 23.0132 6.33489 22.5049C7.57842 21.9967 8.91086 21.736 10.2561 21.7378H10.4784C11.209 14.7224 16.2009 9 25.0014 9C33.8019 9 38.7966 14.7692 39.5216 21.7378H39.7439C41.0891 21.736 42.4216 21.9967 43.6651 22.5049C44.9086 23.0132 46.0389 23.7591 46.9913 24.7C47.9437 25.6409 48.6996 26.7584 49.2158 27.9887C49.7321 29.219 49.9985 30.538 50 31.8703Z" fill="#DBDBDB"/>
</svg>
