<svg width="50" height="50" viewBox="0 0 50 50" fill="none" xmlns="http://www.w3.org/2000/svg">
<path fill-rule="evenodd" clip-rule="evenodd" d="M37.5612 29.1262L37.253 26.1749C36.9963 23.7175 36.0029 21.6237 34.4553 20.1617C32.9379 18.7283 30.6857 17.7085 27.5025 17.7085C24.3117 17.7085 22.0609 18.7226 20.5472 20.1488C19.0044 21.6026 18.0089 23.6934 17.7494 26.1752L17.4409 29.1262H14.2291C13.4564 29.1251 12.691 29.2743 11.9767 29.5651C11.2624 29.8559 10.6132 30.2827 10.0661 30.8211C9.51903 31.3594 9.08482 31.9989 8.78828 32.7028C8.49227 33.4055 8.33923 34.1587 8.33785 34.9197C8.33943 35.6805 8.49262 36.4336 8.78874 37.1361C9.08537 37.8399 9.51961 38.4791 10.0667 39.0173C10.6137 39.5556 11.2629 39.9822 11.9771 40.2729C12.6913 40.5636 13.4565 40.7127 14.2291 40.7117L14.2337 40.7117L40.7733 40.7117C41.5459 40.7127 42.3111 40.5636 43.0253 40.2729C43.7395 39.9822 44.3887 39.5556 44.9357 39.0173C45.4828 38.4791 45.917 37.8399 46.2137 37.1361C46.5097 36.4338 46.6629 35.6809 46.6646 34.9203C46.6633 34.1591 46.5102 33.4057 46.2141 32.7028C45.9176 31.9989 45.4834 31.3594 44.9363 30.8211C44.3892 30.2827 43.74 29.8559 43.0257 29.5651C42.3114 29.2743 41.546 29.1251 40.7733 29.1262L40.7687 29.1262L37.5612 29.1262ZM49.9979 34.9202C49.9963 36.1142 49.7562 37.2962 49.2915 38.3986C48.8268 39.5011 48.1466 40.5025 47.2896 41.3457C46.4326 42.1888 45.4156 42.8572 44.2968 43.3126C43.1779 43.768 41.9791 44.0016 40.7687 44H14.2337C13.0233 44.0016 11.8245 43.768 10.7057 43.3126C9.58681 42.8572 8.56986 42.1888 7.71285 41.3457C6.85584 40.5025 6.17557 39.5011 5.71087 38.3986C5.24618 37.2962 5.00616 36.1142 5.00452 34.9202C5.00583 33.7259 5.24561 32.5437 5.71016 31.4409C6.17471 30.3381 6.85493 29.3364 7.71197 28.493C8.56901 27.6496 9.58607 26.981 10.7051 26.5255C11.8241 26.0699 13.0231 25.8362 14.2337 25.8378H14.4337C15.0911 19.5495 19.5832 14.4202 27.5025 14.4202C35.4217 14.4202 39.9163 19.5914 40.5688 25.8378H40.7687C41.9793 25.8362 43.1783 26.0699 44.2973 26.5255C45.4163 26.981 46.4334 27.6496 47.2904 28.493C48.1475 29.3364 48.8277 30.3381 49.2923 31.4409C49.7568 32.5437 49.9966 33.7259 49.9979 34.9202Z" fill="#DBDBDB"/>
<path d="M19.9998 7C24.0419 7 27.6241 9.0098 29.7489 12.0849C29.0039 11.9971 28.2543 11.9534 27.5041 11.9542C20.0198 11.9542 14.5778 16.0897 12.6629 22.3435L12.4929 22.9353L12.348 23.5223L11.833 23.6184C9.86216 24.0319 8.03292 24.9403 6.52245 26.2559C5.01197 27.5714 3.87144 29.2494 3.21129 31.1274C1.88234 30.1219 0.897163 28.7393 0.388124 27.1652C-0.120915 25.5912 -0.12943 23.9012 0.363723 22.3222C0.856876 20.7433 1.82807 19.351 3.14683 18.3326C4.46559 17.3141 6.06873 16.7181 7.74088 16.6248L8.38332 16.61C8.86669 13.9172 10.2958 11.4782 12.4199 9.72097C14.5441 7.96372 17.2276 7.0004 19.9998 7Z" fill="#7A7A7A"/>
</svg>
