<svg width="50" height="50" viewBox="0 0 50 50" fill="none" xmlns="http://www.w3.org/2000/svg">
<path fill-rule="evenodd" clip-rule="evenodd" d="M37.5612 24.4291L37.253 21.4374C36.9963 18.9463 36.0029 16.8239 34.4553 15.3419C32.9379 13.8888 30.6857 12.8552 27.5025 12.8552C24.3117 12.8552 22.0609 13.8831 20.5472 15.3288C19.0044 16.8025 18.0089 18.922 17.7494 21.4377L17.4409 24.4291H14.2291C13.4564 24.428 12.691 24.5792 11.9767 24.874C11.2624 25.1688 10.6132 25.6015 10.0661 26.1472C9.51903 26.6929 9.08482 27.3411 8.78828 28.0547C8.49227 28.767 8.33923 29.5306 8.33785 30.3019C8.33943 31.0732 8.49262 31.8366 8.78874 32.5487C9.08537 33.2621 9.51961 33.9101 10.0667 34.4557C10.6137 35.0013 11.2629 35.4338 11.9771 35.7285C12.6913 36.0232 13.4565 36.1743 14.2291 36.1732L14.2337 36.1732L40.7733 36.1732C41.5459 36.1743 42.3111 36.0232 43.0253 35.7285C43.7395 35.4338 44.3887 35.0013 44.9357 34.4557C45.4828 33.9101 45.917 33.2621 46.2137 32.5487C46.5097 31.8368 46.6629 31.0736 46.6646 30.3025C46.6633 29.531 46.5102 28.7672 46.2141 28.0547C45.9176 27.3411 45.4834 26.6929 44.9363 26.1472C44.3892 25.6015 43.74 25.1688 43.0257 24.874C42.3114 24.5792 41.546 24.428 40.7733 24.4291L40.7687 24.4291L37.5612 24.4291ZM49.9979 30.3024C49.9963 31.5128 49.7562 32.7109 49.2915 33.8285C48.8268 34.9461 48.1466 35.9612 47.2896 36.8159C46.4326 37.6706 45.4156 38.3481 44.2968 38.8098C43.1779 39.2714 41.9791 39.5082 40.7687 39.5066H14.2337C13.0233 39.5082 11.8245 39.2714 10.7057 38.8098C9.58681 38.3481 8.56986 37.6706 7.71285 36.8159C6.85584 35.9612 6.17557 34.9461 5.71087 33.8285C5.24618 32.7109 5.00616 31.5128 5.00452 30.3024C5.00583 29.0919 5.24561 27.8934 5.71016 26.7755C6.17471 25.6577 6.85493 24.6423 7.71197 23.7873C8.56901 22.9324 9.58607 22.2546 10.7051 21.7928C11.8241 21.331 13.0231 21.0941 14.2337 21.0958H14.4337C15.0911 14.7213 19.5832 9.52182 27.5025 9.52182C35.4217 9.52182 39.9163 14.7638 40.5688 21.0958H40.7687C41.9793 21.0941 43.1783 21.331 44.2973 21.7928C45.4163 22.2546 46.4334 22.9324 47.2904 23.7873C48.1475 24.6423 48.8277 25.6577 49.2923 26.7755C49.7568 27.8934 49.9966 29.0919 49.9979 30.3024Z" fill="#DBDBDB"/>
<path d="M28.0883 43.8285C28.642 43.8285 29.1731 44.0483 29.5646 44.4394C29.9562 44.8306 30.1761 45.3611 30.1761 45.9143C30.1761 46.4674 29.9562 46.9979 29.5646 47.3891C29.1731 47.7802 28.642 48 28.0883 48C27.5345 48 27.0035 47.7802 26.6119 47.3891C26.2203 46.9979 26.0004 46.4674 26.0004 45.9143C26.0004 45.3611 26.2203 44.8306 26.6119 44.4394C27.0035 44.0483 27.5345 43.8285 28.0883 43.8285ZM20.7854 41.7459C21.0661 41.7351 21.3462 41.7809 21.6088 41.8808C21.8715 41.9806 22.1112 42.1324 22.3137 42.327C22.5162 42.5216 22.6773 42.755 22.7873 43.0133C22.8974 43.2716 22.9541 43.5494 22.9541 43.8301C22.9541 44.1108 22.8974 44.3886 22.7873 44.6469C22.6773 44.9052 22.5162 45.1386 22.3137 45.3332C22.1112 45.5278 21.8715 45.6796 21.6088 45.7794C21.3462 45.8793 21.0661 45.9251 20.7854 45.9143C20.246 45.8934 19.7357 45.6647 19.3615 45.2761C18.9873 44.8875 18.7783 44.3693 18.7783 43.8301C18.7783 43.2909 18.9873 42.7727 19.3615 42.3841C19.7357 41.9955 20.246 41.7668 20.7854 41.7459ZM35.3911 41.7459C35.6719 41.7351 35.952 41.7809 36.2146 41.8808C36.4772 41.9806 36.717 42.1324 36.9195 42.327C37.122 42.5216 37.283 42.755 37.3931 43.0133C37.5031 43.2716 37.5598 43.5494 37.5598 43.8301C37.5598 44.1108 37.5031 44.3886 37.3931 44.6469C37.283 44.9052 37.122 45.1386 36.9195 45.3332C36.717 45.5278 36.4772 45.6796 36.2146 45.7794C35.952 45.8793 35.6719 45.9251 35.3911 45.9143C34.8518 45.8934 34.3415 45.6647 33.9673 45.2761C33.5931 44.8875 33.3841 44.3693 33.3841 43.8301C33.3841 43.2909 33.5931 42.7727 33.9673 42.3841C34.3415 41.9955 34.8518 41.7668 35.3911 41.7459Z" fill="#B9D1DB"/>
<path d="M19.9998 2C24.0419 2 27.6241 4.03731 29.7489 7.15453C29.0039 7.06547 28.2543 7.02122 27.5041 7.02204C20.0198 7.02204 14.5778 11.2142 12.6629 17.5536L12.4929 18.1535L12.348 18.7485L11.833 18.846C9.86216 19.2651 8.03292 20.186 6.52245 21.5195C5.01197 22.8531 3.87144 24.5541 3.21129 26.4578C1.88234 25.4385 0.897163 24.0369 0.388124 22.4413C-0.120915 20.8457 -0.12943 19.1326 0.363723 17.532C0.856876 15.9314 1.82807 14.5201 3.14683 13.4877C4.46559 12.4553 6.06873 11.8512 7.74088 11.7566L8.38332 11.7416C8.86669 9.01189 10.2958 6.53953 12.4199 4.75822C14.5441 2.97691 17.2276 2.00041 19.9998 2Z" fill="#7A7A7A"/>
</svg>
