<svg width="50" height="50" viewBox="0 0 50 50" fill="none" xmlns="http://www.w3.org/2000/svg">
<g clip-path="url(#clip0_20_12)">
<path d="M28.0883 12.4755C35.8044 12.4755 40.1805 17.3944 40.8159 23.3389H41.01C45.9746 23.3389 50.0001 27.207 50.0001 31.9789C50.0001 36.7507 45.9746 40.6189 41.01 40.6189H15.1666C10.202 40.6189 6.17651 36.7507 6.17651 31.9789C6.17651 27.207 10.202 23.3389 15.1666 23.3389H15.3607C16.0024 17.3537 20.3722 12.4755 28.0883 12.4755ZM28.0883 15.6026C22.9234 15.6026 18.4252 19.5739 18.4252 25.0619C18.4252 25.9312 17.6301 26.6129 16.7192 26.6129H14.9976C11.8548 26.6097 9.30677 29.0488 9.30677 32.0508C9.30677 35.0528 11.8548 37.4918 14.9976 37.4918H41.179C44.3218 37.4918 46.8698 35.0528 46.8698 32.0508C46.8698 29.0488 44.3218 26.6097 41.179 26.6097H39.4574C38.5496 26.6129 37.7514 25.9312 37.7514 25.0619C37.7514 19.5051 33.2532 15.6026 28.0883 15.6026Z" fill="#DBDBDB"/>
<path d="M5.55979 20.9185C5.68039 21.2649 5.6753 21.6425 5.54541 21.9855C5.41552 22.3284 5.1691 22.6149 4.84922 22.7948L4.58941 22.9073L2.08208 23.7704C1.71206 23.8997 1.30692 23.8857 0.946791 23.7309C0.586662 23.5762 0.297765 23.2921 0.137238 22.9349C-0.0232895 22.5776 -0.043758 22.1731 0.0798803 21.8015C0.203519 21.4299 0.46226 21.1181 0.804933 20.9279L1.06161 20.8153L3.57208 19.9523C3.96435 19.8178 4.39402 19.8444 4.76671 20.0261C5.1394 20.2079 5.42464 20.53 5.55979 20.9217V20.9185ZM21.5773 7.78496C22.6197 8.29154 23.5368 8.95134 24.3131 9.72372C23.0423 9.98326 21.8528 10.3804 20.7572 10.8964C19.3434 10.0463 17.6785 9.71186 16.0457 9.94998C14.4129 10.1881 12.9131 10.9841 11.8017 12.2024C10.6902 13.4208 10.0356 14.9862 9.94943 16.6324C9.86323 18.2785 10.3507 19.9037 11.3288 21.2312C10.2959 21.5377 9.32548 21.9848 8.43336 22.5446C7.22231 20.6611 6.66134 18.4335 6.83605 16.2018C7.01077 13.97 7.91156 11.8567 9.40099 10.1842C10.8904 8.51165 12.8867 7.37184 15.0852 6.93865C17.2837 6.50546 19.5637 6.80268 21.5773 7.78496ZM2.78638 8.31655L3.04619 8.41662L5.43145 9.57675C5.78308 9.74751 6.058 10.0436 6.20211 10.4066C6.34622 10.7697 6.34907 11.1735 6.21011 11.5386C6.07116 11.9037 5.80045 12.2036 5.45126 12.3793C5.10208 12.555 4.69971 12.5938 4.32334 12.488L4.0604 12.388L1.67514 11.2278C1.32351 11.0571 1.04859 10.761 0.90448 10.3979C0.760373 10.0349 0.757518 9.63104 0.896477 9.26596C1.03544 8.90088 1.30614 8.60098 1.65533 8.42527C2.00451 8.24957 2.40688 8.21078 2.78325 8.31655H2.78638ZM24.9267 0.889833C25.2562 1.05047 25.5189 1.32161 25.6688 1.65594C25.8187 1.99027 25.8463 2.36656 25.7468 2.71915L25.6466 2.98182L24.4853 5.36463C24.3144 5.7159 24.018 5.99054 23.6546 6.1345C23.2911 6.27846 22.8869 6.28131 22.5214 6.14249C22.156 6.00368 21.8558 5.73325 21.6799 5.38442C21.504 5.0356 21.4652 4.63364 21.571 4.25765L21.6712 3.99186L22.8357 1.60905C23.0177 1.23694 23.3402 0.952204 23.7322 0.817361C24.1243 0.682517 24.5539 0.708582 24.9267 0.889833ZM13.063 0.789767L13.1788 1.04618L14.0428 3.55407C14.1698 3.92323 14.1539 4.3265 13.9984 4.6846C13.8429 5.0427 13.5589 5.32972 13.2022 5.48924C12.8456 5.64876 12.4421 5.66924 12.0711 5.54665C11.7001 5.42407 11.3885 5.16728 11.1974 4.82678L11.0847 4.57036L10.2207 2.0656C10.0957 1.69731 10.1126 1.29569 10.2681 0.939155C10.4235 0.582618 10.7064 0.296752 11.0615 0.137361C11.4166 -0.0220311 11.8184 -0.0435073 12.1885 0.0771244C12.5586 0.197756 12.8704 0.451837 13.063 0.789767Z" fill="#FFB800"/>
<path d="M28.0883 45.8285C28.642 45.8285 29.1731 46.0483 29.5646 46.4394C29.9562 46.8306 30.1761 47.3611 30.1761 47.9143C30.1761 48.4674 29.9562 48.9979 29.5646 49.3891C29.1731 49.7803 28.642 50 28.0883 50C27.5345 50 27.0035 49.7803 26.6119 49.3891C26.2203 48.9979 26.0004 48.4674 26.0004 47.9143C26.0004 47.3611 26.2203 46.8306 26.6119 46.4394C27.0035 46.0483 27.5345 45.8285 28.0883 45.8285ZM20.7854 43.7459C21.0661 43.7351 21.3462 43.7809 21.6088 43.8808C21.8715 43.9806 22.1112 44.1324 22.3137 44.327C22.5162 44.5216 22.6773 44.755 22.7873 45.0133C22.8974 45.2716 22.9541 45.5494 22.9541 45.8301C22.9541 46.1108 22.8974 46.3886 22.7873 46.6469C22.6773 46.9052 22.5162 47.1386 22.3137 47.3332C22.1112 47.5278 21.8715 47.6796 21.6088 47.7794C21.3462 47.8793 21.0661 47.9251 20.7854 47.9143C20.246 47.8934 19.7357 47.6647 19.3615 47.2761C18.9873 46.8875 18.7783 46.3693 18.7783 45.8301C18.7783 45.2909 18.9873 44.7727 19.3615 44.3841C19.7357 43.9955 20.246 43.7668 20.7854 43.7459ZM35.3911 43.7459C35.6719 43.7351 35.952 43.7809 36.2146 43.8808C36.4772 43.9806 36.717 44.1324 36.9195 44.327C37.122 44.5216 37.2831 44.755 37.3931 45.0133C37.5031 45.2716 37.5598 45.5494 37.5598 45.8301C37.5598 46.1108 37.5031 46.3886 37.3931 46.6469C37.2831 46.9052 37.122 47.1386 36.9195 47.3332C36.717 47.5278 36.4772 47.6796 36.2146 47.7794C35.952 47.8793 35.6719 47.9251 35.3911 47.9143C34.8518 47.8934 34.3415 47.6647 33.9673 47.2761C33.5931 46.8875 33.3841 46.3693 33.3841 45.8301C33.3841 45.2909 33.5931 44.7727 33.9673 44.3841C34.3415 43.9955 34.8518 43.7668 35.3911 43.7459Z" fill="#B9D1DB"/>
</g>
<defs>
<clipPath id="clip0_20_12">
<rect width="50" height="50" fill="white"/>
</clipPath>
</defs>
</svg>
