<svg width="50" height="50" viewBox="0 0 50 50" fill="none" xmlns="http://www.w3.org/2000/svg">
<g clip-path="url(#clip0_25_4)">
<path d="M37.992 5.49923e-06C35.9063 0.113111 33.877 0.718118 32.0699 1.76558C30.5612 2.63365 29.2384 3.79058 28.1772 5.17021C27.116 6.54984 26.3372 8.12512 25.8853 9.80595C27.0429 10.054 28.1681 10.4346 29.2385 10.9403C29.5302 9.51394 30.1449 8.17343 31.0356 7.02174C31.9262 5.87005 33.069 4.93785 34.3762 4.29675C34.9204 4.01019 35.4784 3.75051 36.0481 3.51865C35.7794 7.35603 36.1606 11.2778 38.0044 14.2839C39.817 16.9495 42.1546 18.7307 45.9985 20.215C45.561 20.6025 45.0922 20.9525 44.5922 21.2743C43.6234 21.8931 42.6609 22.3712 41.7171 22.7118C42.7629 23.4024 43.6896 24.2583 44.4609 25.2461C46.5498 24.2483 48.3406 22.7205 49.6549 20.815C49.825 20.5671 49.9361 20.2835 49.9795 19.9859C50.0228 19.6884 49.9973 19.3849 49.905 19.0987C49.8126 18.8126 49.6558 18.5514 49.4467 18.3354C49.2375 18.1194 48.9816 17.9542 48.6986 17.8526C44.3984 16.3151 42.0827 14.5839 40.7608 12.0528C39.3139 9.29347 39.0451 6.36543 40.0045 2.42805C40.0771 2.13053 40.0791 1.82014 40.0103 1.52172C39.9415 1.22329 39.8038 0.945119 39.6082 0.709449C39.4126 0.473778 39.1645 0.287153 38.8839 0.164505C38.6032 0.0418581 38.2978 -0.0165321 37.992 5.49923e-06Z" fill="#FFE898"/>
<path d="M21.8757 12.4996C14.1723 12.4996 9.80341 17.4182 9.16901 23.3555H8.97525C4.01883 23.3555 -6.10352e-05 27.221 -6.10352e-05 31.9896C-6.10352e-05 36.7582 4.01883 40.6237 8.97525 40.6237H34.7762C39.7326 40.6237 43.7515 36.7582 43.7515 31.9896C43.7515 27.396 40.0263 23.643 35.323 23.3711L34.5824 23.3555C33.9417 17.3776 29.5791 12.4996 21.8757 12.4996ZM21.8757 15.6245C27.0321 15.6245 31.5229 19.5931 31.5229 25.0773C31.5229 25.9461 32.3167 26.6273 33.2261 26.6273H34.9449C38.0825 26.6273 40.6264 29.0616 40.6264 32.0646C40.6264 35.0614 38.0825 37.4988 34.9449 37.4988H8.8065C5.66889 37.4988 3.12505 35.0645 3.12505 32.0615C3.12505 29.0616 5.66889 26.6273 8.8065 26.6273H10.5253C11.4316 26.6273 12.2285 25.9461 12.2285 25.0773C12.2285 19.5244 16.7193 15.6245 21.8757 15.6245Z" fill="#DBDBDB"/>
<path d="M21.8758 45.8329C21.5955 45.8221 21.3158 45.8679 21.0537 45.9677C20.7915 46.0675 20.5521 46.2191 20.35 46.4136C20.1478 46.6081 19.987 46.8413 19.8771 47.0995C19.7673 47.3576 19.7106 47.6352 19.7106 47.9157C19.7106 48.1962 19.7673 48.4738 19.8771 48.7319C19.987 48.99 20.1478 49.2233 20.35 49.4178C20.5521 49.6122 20.7915 49.7639 21.0537 49.8637C21.3158 49.9635 21.5955 50.0093 21.8758 49.9984C22.4142 49.9776 22.9237 49.749 23.2973 49.3607C23.6709 48.9724 23.8795 48.4545 23.8795 47.9157C23.8795 47.3769 23.6709 46.859 23.2973 46.4707C22.9237 46.0824 22.4142 45.8538 21.8758 45.8329ZM29.1667 43.7486C28.8863 43.7378 28.6067 43.7836 28.3445 43.8834C28.0824 43.9832 27.843 44.1348 27.6408 44.3293C27.4387 44.5238 27.2779 44.757 27.168 45.0151C27.0581 45.2732 27.0015 45.5509 27.0015 45.8314C27.0015 46.1119 27.0581 46.3895 27.168 46.6476C27.2779 46.9057 27.4387 47.139 27.6408 47.3335C27.843 47.5279 28.0824 47.6796 28.3445 47.7794C28.6067 47.8792 28.8863 47.925 29.1667 47.9141C29.7051 47.8933 30.2146 47.6647 30.5881 47.2764C30.9617 46.8881 31.1704 46.3702 31.1704 45.8314C31.1704 45.2926 30.9617 44.7747 30.5881 44.3864C30.2146 43.998 29.7051 43.7695 29.1667 43.7486ZM14.5849 43.7486C14.3046 43.7378 14.025 43.7836 13.7628 43.8834C13.5006 43.9832 13.2613 44.1348 13.0591 44.3293C12.8569 44.5238 12.6961 44.757 12.5862 45.0151C12.4764 45.2732 12.4198 45.5509 12.4198 45.8314C12.4198 46.1119 12.4764 46.3895 12.5862 46.6476C12.6961 46.9057 12.8569 47.139 13.0591 47.3335C13.2613 47.5279 13.5006 47.6796 13.7628 47.7794C14.025 47.8792 14.3046 47.925 14.5849 47.9141C15.1234 47.8933 15.6328 47.6647 16.0064 47.2764C16.38 46.8881 16.5887 46.3702 16.5887 45.8314C16.5887 45.2926 16.38 44.7747 16.0064 44.3864C15.6328 43.998 15.1234 43.7695 14.5849 43.7486Z" fill="#B9D1DB"/>
</g>
<defs>
<clipPath id="clip0_25_4">
<rect width="50" height="50" fill="white" transform="matrix(-1 0 0 1 50 0)"/>
</clipPath>
</defs>
</svg>
