<svg width="50" height="50" viewBox="0 0 50 50" fill="none" xmlns="http://www.w3.org/2000/svg">
<path fill-rule="evenodd" clip-rule="evenodd" d="M37.5612 25.6178L37.253 22.601C36.9963 20.0889 36.0029 17.9486 34.4553 16.4541C32.9379 14.9889 30.6857 13.9465 27.5025 13.9465C24.3117 13.9465 22.0609 14.9831 20.5472 16.441C19.0044 17.9271 18.0089 20.0644 17.7494 22.6013L17.4409 25.6178H14.2291C13.4564 25.6168 12.691 25.7692 11.9767 26.0665C11.2624 26.3638 10.6132 26.8001 10.0661 27.3504C9.51903 27.9007 9.08482 28.5544 8.78828 29.274C8.49227 29.9923 8.33923 30.7623 8.33785 31.5401C8.33943 32.3178 8.49262 33.0877 8.78874 33.8058C9.08537 34.5252 9.51961 35.1787 10.0667 35.7288C10.6137 36.279 11.2629 36.7151 11.9771 37.0123C12.6913 37.3095 13.4565 37.4619 14.2291 37.4608L14.2337 37.4608L40.7733 37.4608C41.5459 37.4619 42.3111 37.3095 43.0253 37.0123C43.7395 36.7151 44.3887 36.279 44.9357 35.7288C45.4828 35.1787 45.917 34.5252 46.2137 33.8058C46.5097 33.0879 46.6629 32.3182 46.6646 31.5407C46.6633 30.7627 46.5102 29.9925 46.2141 29.274C45.9176 28.5544 45.4834 27.9007 44.9363 27.3504C44.3892 26.8001 43.74 26.3638 43.0257 26.0665C42.3114 25.7692 41.546 25.6168 40.7733 25.6178L40.7687 25.6178L37.5612 25.6178ZM49.9979 31.5406C49.9963 32.7611 49.7562 33.9694 49.2915 35.0964C48.8268 36.2234 48.1466 37.247 47.2896 38.1089C46.4326 38.9708 45.4156 39.654 44.2968 40.1196C43.1779 40.5851 41.9791 40.8239 40.7687 40.8222H14.2337C13.0233 40.8239 11.8245 40.5851 10.7057 40.1196C9.58681 39.654 8.56986 38.9708 7.71285 38.1089C6.85584 37.247 6.17557 36.2234 5.71087 35.0964C5.24618 33.9694 5.00616 32.7611 5.00452 31.5406C5.00583 30.3198 5.24561 29.1113 5.71016 27.984C6.17471 26.8568 6.85493 25.8328 7.71197 24.9706C8.56901 24.1085 9.58607 23.4251 10.7051 22.9594C11.8241 22.4936 13.0231 22.2548 14.2337 22.2565H14.4337C15.0911 15.8284 19.5832 10.5851 27.5025 10.5851C35.4217 10.5851 39.9163 15.8712 40.5688 22.2565H40.7687C41.9793 22.2548 43.1783 22.4936 44.2973 22.9594C45.4163 23.4251 46.4334 24.1085 47.2904 24.9706C48.1475 25.8328 48.8277 26.8568 49.2923 27.984C49.7568 29.1113 49.9966 30.3198 49.9979 31.5406Z" fill="#DBDBDB"/>
<path d="M23.0943 37.7897L23.0942 37.7895L23.0874 37.7985L23.0125 37.8986L23.0122 37.8984L23.0055 37.9084C22.3459 38.8839 23.0345 40.2436 24.2515 40.2436H28.6065L24.106 45.809L24.1058 45.8088L24.0981 45.8193L24.0182 45.9294L24.0137 45.9355L24.0097 45.9419C23.804 46.2646 23.7293 46.6538 23.8008 47.0299C23.8722 47.4059 24.0845 47.7405 24.3943 47.965C24.7041 48.1895 25.088 48.287 25.4672 48.2373C25.8465 48.1877 26.1924 47.9947 26.4341 47.698L26.4347 47.6974L32.9136 39.6875L32.9138 39.6877L32.9213 39.6776L32.9942 39.5775L32.9944 39.5776L33.0003 39.5688C33.65 38.5925 32.9618 37.2421 31.7493 37.2421H27.4256L29.9216 34.2048L29.9264 34.199L29.9308 34.1929L30.0107 34.0829L30.0109 34.083L30.0176 34.0728C30.2276 33.7516 30.3067 33.3621 30.2387 32.9844C30.1707 32.6067 29.9607 32.2694 29.6519 32.0419C29.343 31.8144 28.9588 31.714 28.5783 31.7616C28.1977 31.8091 27.8499 32.0009 27.6064 32.2974L23.0943 37.7897Z" fill="#FFB800" stroke="#FFB800" stroke-width="0.5"/>
<path d="M19.9998 3C24.0419 3 27.6241 5.05446 29.7489 8.19791C29.0039 8.1081 28.2543 8.06348 27.5041 8.0643C20.0198 8.0643 14.5778 12.2917 12.6629 18.6845L12.4929 19.2895L12.348 19.8894L11.833 19.9877C9.86216 20.4104 8.03292 21.339 6.52245 22.6838C5.01197 24.0286 3.87144 25.7439 3.21129 27.6636C1.88234 26.6357 0.897163 25.2224 0.388124 23.6134C-0.120915 22.0043 -0.12943 20.2768 0.363723 18.6627C0.856876 17.0487 1.82807 15.6255 3.14683 14.5844C4.46559 13.5433 6.06873 12.9341 7.74088 12.8387L8.38332 12.8236C8.86669 10.0709 10.2958 7.57774 12.4199 5.78144C14.5441 3.98514 17.2276 3.00041 19.9998 3Z" fill="#7A7A7A"/>
</svg>
