<svg width="50" height="50" viewBox="0 0 50 50" fill="none" xmlns="http://www.w3.org/2000/svg">
<path fill-rule="evenodd" clip-rule="evenodd" d="M37.5612 25.6178L37.253 22.601C36.9963 20.0889 36.0029 17.9486 34.4553 16.4541C32.9379 14.9889 30.6857 13.9465 27.5025 13.9465C24.3117 13.9465 22.0609 14.9831 20.5472 16.441C19.0044 17.9271 18.0089 20.0644 17.7494 22.6013L17.4409 25.6178H14.2291C13.4564 25.6168 12.691 25.7692 11.9767 26.0665C11.2624 26.3638 10.6132 26.8001 10.0661 27.3504C9.51903 27.9007 9.08482 28.5544 8.78828 29.274C8.49227 29.9923 8.33923 30.7623 8.33785 31.5401C8.33943 32.3178 8.49262 33.0877 8.78874 33.8058C9.08537 34.5252 9.51961 35.1787 10.0667 35.7288C10.6137 36.279 11.2629 36.7151 11.9771 37.0123C12.6913 37.3095 13.4565 37.4619 14.2291 37.4608L14.2337 37.4608L40.7733 37.4608C41.5459 37.4619 42.3111 37.3095 43.0253 37.0123C43.7395 36.7151 44.3887 36.279 44.9357 35.7288C45.4828 35.1787 45.917 34.5252 46.2137 33.8058C46.5097 33.0879 46.6629 32.3182 46.6646 31.5407C46.6633 30.7627 46.5102 29.9925 46.2141 29.274C45.9176 28.5544 45.4834 27.9007 44.9363 27.3504C44.3892 26.8001 43.74 26.3638 43.0257 26.0665C42.3114 25.7692 41.546 25.6168 40.7733 25.6178L40.7687 25.6178L37.5612 25.6178ZM49.9979 31.5406C49.9963 32.7611 49.7562 33.9694 49.2915 35.0964C48.8268 36.2234 48.1466 37.247 47.2896 38.1089C46.4326 38.9708 45.4156 39.654 44.2968 40.1196C43.1779 40.5851 41.9791 40.8239 40.7687 40.8222H14.2337C13.0233 40.8239 11.8245 40.5851 10.7057 40.1196C9.58681 39.654 8.56986 38.9708 7.71285 38.1089C6.85584 37.247 6.17557 36.2234 5.71087 35.0964C5.24618 33.9694 5.00616 32.7611 5.00452 31.5406C5.00583 30.3199 5.24561 29.1113 5.71016 27.984C6.17471 26.8568 6.85493 25.8328 7.71197 24.9707C8.56901 24.1085 9.58607 23.4251 10.7051 22.9594C11.8241 22.4936 13.0231 22.2548 14.2337 22.2565H14.4337C15.0911 15.8284 19.5832 10.5851 27.5025 10.5851C35.4217 10.5851 39.9163 15.8713 40.5688 22.2565H40.7687C41.9793 22.2548 43.1783 22.4936 44.2973 22.9594C45.4163 23.4251 46.4334 24.1085 47.2904 24.9707C48.1475 25.8328 48.8277 26.8568 49.2923 27.984C49.7568 29.1113 49.9966 30.3199 49.9979 31.5406Z" fill="#DBDBDB"/>
<path d="M23.2875 37.9484L27.7996 32.4561C28.0025 32.209 28.2923 32.0492 28.6093 32.0096C28.9262 31.97 29.2463 32.0536 29.5036 32.2432C29.7609 32.4327 29.9359 32.7139 29.9926 33.0288C30.0493 33.3436 29.9834 33.6683 29.8084 33.936L29.7285 34.046L26.8966 37.4921H31.7493C32.7582 37.4921 33.3335 38.6168 32.7921 39.4303L32.7192 39.5303L26.2403 47.5401C26.0388 47.7874 25.7507 47.9481 25.4348 47.9895C25.1189 48.0308 24.7991 47.9496 24.541 47.7626C24.2829 47.5755 24.106 47.2967 24.0464 46.9832C23.9868 46.6697 24.0491 46.3452 24.2205 46.0763L24.3004 45.9662L29.1301 39.9936H24.2515C23.2386 39.9936 22.6632 38.8609 23.2126 38.0484L23.2875 37.9484Z" fill="#FFB800"/>
<path fill-rule="evenodd" clip-rule="evenodd" d="M22.894 37.6397L27.4132 32.1387C27.4132 32.1387 27.4132 32.1387 27.4132 32.1387C27.6973 31.7929 28.1031 31.569 28.5472 31.5135C28.9914 31.458 29.4398 31.5751 29.8001 31.8406C30.1605 32.1061 30.4054 32.4996 30.4847 32.9401C30.564 33.3807 30.4718 33.8349 30.2269 34.2096L30.2202 34.2198L30.1243 34.3519L27.9546 36.9921H31.7493C33.1654 36.9921 33.9665 38.5682 33.2084 39.7073L33.2025 39.7162L33.1159 39.835L26.6279 47.856C26.3459 48.2021 25.9423 48.4273 25.4997 48.4852C25.057 48.5432 24.6091 48.4294 24.2476 48.1674C23.8861 47.9054 23.6385 47.5151 23.5552 47.0766C23.4718 46.638 23.5589 46.184 23.7988 45.8075L23.807 45.7948L23.9034 45.6619L28.0828 40.4936H24.2515C22.8305 40.4936 22.0285 38.9069 22.7984 37.7684L22.8051 37.7584L22.894 37.6397ZM29.1301 39.9936L24.3004 45.9662L24.2205 46.0763C24.0491 46.3452 23.9868 46.6697 24.0464 46.9832C24.1059 47.2967 24.2829 47.5755 24.541 47.7626C24.7991 47.9496 25.1189 48.0308 25.4348 47.9895C25.7507 47.9481 26.0388 47.7874 26.2403 47.5401L32.7192 39.5303L32.7921 39.4303C33.3335 38.6168 32.7582 37.4921 31.7493 37.4921H26.8966L29.7285 34.046L29.8084 33.936C29.9834 33.6683 30.0493 33.3436 29.9926 33.0288C29.9359 32.7139 29.7609 32.4327 29.5036 32.2432C29.2463 32.0536 28.9262 31.97 28.6092 32.0096C28.2923 32.0492 28.0025 32.209 27.7996 32.4561L23.2875 37.9484L23.2126 38.0484C22.6632 38.8609 23.2386 39.9936 24.2515 39.9936H29.1301Z" fill="#FFB800"/>
<path d="M19.9998 3C24.0419 3 27.6241 5.05446 29.7489 8.19791C29.0039 8.1081 28.2543 8.06348 27.5041 8.0643C20.0198 8.0643 14.5778 12.2917 12.6629 18.6845L12.4929 19.2895L12.348 19.8894L11.833 19.9877C9.86216 20.4104 8.03292 21.339 6.52245 22.6838C5.01197 24.0286 3.87144 25.7439 3.21129 27.6636C1.88234 26.6357 0.897163 25.2224 0.388124 23.6134C-0.120915 22.0043 -0.12943 20.2768 0.363723 18.6627C0.856876 17.0487 1.82807 15.6255 3.14683 14.5844C4.46559 13.5433 6.06873 12.9341 7.74088 12.8387L8.38332 12.8236C8.86669 10.0709 10.2958 7.57774 12.4199 5.78144C14.5441 3.98514 17.2276 3.00041 19.9998 3Z" fill="#7A7A7A"/>
</svg>
