<svg width="51" height="50" viewBox="0 0 51 50" fill="none" xmlns="http://www.w3.org/2000/svg">
<path d="M44.8728 33.9125L41.6546 32.0303C42.2369 31.423 42.9048 30.9063 43.6366 30.497C44.115 30.2239 44.4675 29.7705 44.6173 29.2356C44.7671 28.7006 44.7022 28.1274 44.4365 27.6407C44.1709 27.1541 43.7262 26.7933 43.1991 26.6371C42.672 26.4808 42.1053 26.5417 41.6224 26.8065C40.2252 27.5894 38.987 28.6333 37.9735 29.8827L29.6335 25L37.9716 20.1259C38.9849 21.3756 40.2231 22.4195 41.6205 23.2022C41.86 23.3389 42.1239 23.4262 42.3969 23.4592C42.6699 23.4921 42.9467 23.4699 43.2112 23.394C43.4758 23.318 43.7228 23.1898 43.9382 23.0167C44.1535 22.8436 44.3328 22.629 44.4658 22.3853C44.5988 22.1417 44.6828 21.8737 44.713 21.597C44.7432 21.3203 44.7189 21.0403 44.6417 20.7731C44.5644 20.506 44.4356 20.2569 44.2628 20.0404C44.09 19.8239 43.8765 19.6442 43.6347 19.5116C42.9031 19.1021 42.2352 18.5854 41.6527 17.9783L44.8709 16.0961C45.1171 15.9629 45.3343 15.7809 45.5096 15.5609C45.6849 15.341 45.8147 15.0876 45.8914 14.8159C45.968 14.5441 45.99 14.2596 45.9558 13.9791C45.9217 13.6986 45.8322 13.4279 45.6927 13.1831C45.5532 12.9383 45.3665 12.7244 45.1437 12.5541C44.9209 12.3839 44.6666 12.2607 44.3958 12.1919C44.1251 12.1231 43.8434 12.1102 43.5676 12.1538C43.2919 12.1974 43.0275 12.2967 42.7904 12.4458L39.5722 14.327C39.343 13.5124 39.2339 12.6679 39.2485 11.821C39.2545 11.5436 39.2064 11.2678 39.1069 11.0093C39.0075 10.7508 38.8586 10.5147 38.6688 10.3146C38.479 10.1144 38.2521 9.95418 38.0011 9.843C37.75 9.73182 37.4798 9.6719 37.2058 9.66667H37.167C36.6214 9.66657 36.0975 9.8833 35.7081 10.2702C35.3187 10.6572 35.0948 11.1834 35.0846 11.7357C35.0553 13.3513 35.3283 14.958 35.8892 16.4708L27.5511 21.3478V11.6006C29.1266 11.337 30.6384 10.7734 32.0065 9.93979C32.4796 9.65119 32.82 9.18413 32.953 8.64137C33.086 8.09861 33.0005 7.5246 32.7154 7.04563C32.4304 6.56665 31.9691 6.22194 31.433 6.08733C30.8969 5.95272 30.33 6.03923 29.8569 6.32783C29.1397 6.76423 28.3627 7.09073 27.5511 7.29671V4.10833C27.5511 3.54917 27.3317 3.01291 26.9412 2.61752C26.5507 2.22213 26.021 2 25.4688 2C24.9165 2 24.3868 2.22213 23.9963 2.61752C23.6058 3.01291 23.3864 3.54917 23.3864 4.10833V7.29671C22.5748 7.09073 21.7977 6.76423 21.0806 6.32783C20.6075 6.03923 20.0406 5.95272 19.5045 6.08733C18.9684 6.22194 18.5071 6.56665 18.2221 7.04563C17.937 7.5246 17.8516 8.09861 17.9845 8.64137C18.1175 9.18413 18.4579 9.65119 18.931 9.93979C20.2991 10.7734 21.8109 11.337 23.3864 11.6006V21.3478L15.0483 16.4708C15.6101 14.9575 15.8837 13.3502 15.8548 11.7338C15.8446 11.1815 15.6207 10.6552 15.2313 10.2683C14.8419 9.88138 14.318 9.66466 13.7724 9.66475H13.7317C13.4582 9.66986 13.1884 9.72947 12.9377 9.84018C12.687 9.95088 12.4602 10.1105 12.2705 10.3099C12.0807 10.5094 11.9316 10.7447 11.8317 11.0025C11.7317 11.2603 11.683 11.5355 11.6881 11.8124C11.7034 12.6605 11.5946 13.5063 11.3653 14.3223L8.1471 12.4458C7.91011 12.3027 7.64738 12.2087 7.3742 12.1693C7.10101 12.1298 6.82281 12.1458 6.55575 12.2161C6.2887 12.2865 6.03813 12.4099 5.8186 12.5792C5.59907 12.7485 5.41496 12.9603 5.27697 13.2022C5.13898 13.4442 5.04987 13.7115 5.0148 13.9886C4.97974 14.2657 4.99943 14.5471 5.07272 14.8165C5.14602 15.0858 5.27146 15.3378 5.44176 15.5576C5.61205 15.7774 5.82381 15.9608 6.06471 16.0971L9.28294 17.9793C8.70039 18.5863 8.0325 19.103 7.30089 19.5126C7.0591 19.6451 6.84563 19.8249 6.67281 20.0414C6.49998 20.2579 6.37122 20.5069 6.29395 20.7741C6.21669 21.0413 6.19244 21.3213 6.22262 21.598C6.25281 21.8747 6.33681 22.1426 6.4698 22.3863C6.60279 22.6299 6.78212 22.8445 6.99744 23.0176C7.21277 23.1908 7.45983 23.319 7.72436 23.3949C7.98889 23.4709 8.26566 23.493 8.53869 23.4601C8.81172 23.4272 9.07561 23.3398 9.31512 23.2031C10.7123 22.4201 11.9505 21.3763 12.964 20.1269L21.304 25L12.9659 29.8741C11.9524 28.6246 10.7142 27.5808 9.31702 26.7978C9.0775 26.6611 8.81361 26.5738 8.54058 26.5408C8.26755 26.5079 7.99078 26.5301 7.72625 26.606C7.46172 26.682 7.21466 26.8102 6.99934 26.9833C6.78401 27.1564 6.60468 27.371 6.47169 27.6147C6.33871 27.8583 6.2547 28.1263 6.22452 28.403C6.19434 28.6797 6.21858 28.9597 6.29585 29.2269C6.37311 29.494 6.50187 29.7431 6.6747 29.9596C6.84753 30.1761 7.06099 30.3558 7.30278 30.4884C8.0344 30.898 8.70228 31.4146 9.28484 32.0217L6.06471 33.9125C5.82381 34.0488 5.61205 34.2321 5.44176 34.452C5.27146 34.6718 5.14602 34.9237 5.07272 35.1931C4.99943 35.4624 4.97974 35.7439 5.0148 36.021C5.04987 36.2981 5.13898 36.5654 5.27697 36.8074C5.41496 37.0493 5.59907 37.2611 5.8186 37.4304C6.03813 37.5996 6.2887 37.7231 6.55575 37.7934C6.82281 37.8638 7.10101 37.8798 7.3742 37.8403C7.64738 37.8009 7.91011 37.7069 8.1471 37.5638L11.3653 35.6825C11.5945 36.4972 11.7036 37.3417 11.689 38.1886C11.6794 38.7471 11.8891 39.2867 12.2721 39.6888C12.6551 40.091 13.18 40.3228 13.7317 40.3333H13.7705C14.3161 40.3334 14.84 40.1167 15.2294 39.7298C15.6188 39.3428 15.8427 38.8166 15.8529 38.2643C15.8822 36.6487 15.6092 35.042 15.0483 33.5292L23.3864 28.6522V38.3994C21.8109 38.663 20.2991 39.2266 18.931 40.0602C18.4579 40.3488 18.1175 40.8159 17.9845 41.3586C17.8516 41.9014 17.937 42.4754 18.2221 42.9544C18.5071 43.4333 18.9684 43.7781 19.5045 43.9127C20.0406 44.0473 20.6075 43.9608 21.0806 43.6722C21.7977 43.2358 22.5748 42.9093 23.3864 42.7033V45.8917C23.3864 46.4508 23.6058 46.9871 23.9963 47.3825C24.3868 47.7779 24.9165 48 25.4688 48C26.021 48 26.5507 47.7779 26.9412 47.3825C27.3317 46.9871 27.5511 46.4508 27.5511 45.8917V42.7033C28.3627 42.9093 29.1397 43.2358 29.8569 43.6722C30.33 43.9608 30.8969 44.0473 31.433 43.9127C31.9691 43.7781 32.4304 43.4333 32.7154 42.9544C33.0005 42.4754 33.086 41.9014 32.953 41.3586C32.82 40.8159 32.4796 40.3488 32.0065 40.0602C30.6384 39.2266 29.1266 38.663 27.5511 38.3994V28.6522L35.8892 33.5292C35.3274 35.0425 35.0538 36.6498 35.0827 38.2662C35.0929 38.8185 35.3168 39.3448 35.7062 39.7317C36.0956 40.1186 36.6195 40.3353 37.1651 40.3353H37.2058C37.4793 40.3301 37.7491 40.2705 37.9998 40.1598C38.2505 40.0491 38.4773 39.8895 38.667 39.6901C38.8568 39.4906 39.0059 39.2553 39.1058 38.9975C39.2058 38.7397 39.2545 38.4645 39.2494 38.1876C39.2341 37.3395 39.3429 36.4937 39.5722 35.6778L42.7904 37.559C43.0274 37.713 43.2928 37.8168 43.5705 37.8641C43.8482 37.9113 44.1325 37.901 44.4062 37.8338C44.6799 37.7666 44.9373 37.6439 45.1628 37.4731C45.3884 37.3024 45.5773 37.087 45.7183 36.8402C45.8592 36.5933 45.9493 36.3201 45.983 36.037C46.0167 35.7539 45.9933 35.4669 45.9142 35.1932C45.8352 34.9195 45.7022 34.6649 45.5231 34.4448C45.3441 34.2247 45.1229 34.0436 44.8728 33.9125Z" fill="#B9D1DB"/>
</svg>
