<svg width="50" height="50" viewBox="0 0 50 50" fill="none" xmlns="http://www.w3.org/2000/svg">
<mask id="mask0_35_31" style="mask-type:alpha" maskUnits="userSpaceOnUse" x="0" y="0" width="50" height="32">
<path d="M0 32H50V0H0V32Z" fill="white"/>
</mask>
<g mask="url(#mask0_35_31)">
<path d="M10.4845 33.9919C15.5962 42.6062 26.9172 45.5574 35.7712 40.584C38.1518 39.2501 40.1961 37.4156 41.7547 35.2145C41.8754 35.0441 41.9543 34.849 41.9853 34.6442C42.0162 34.4394 41.9983 34.2304 41.933 34.0334C41.8677 33.8364 41.7568 33.6567 41.6087 33.508C41.4607 33.3594 41.2795 33.2458 41.0791 33.1762C34.1074 30.7489 30.3726 27.9363 28.2054 23.91C25.9252 19.6731 25.3348 15.0329 26.9302 8.67117C26.9816 8.46641 26.9831 8.25278 26.9345 8.04737C26.8858 7.84196 26.7885 7.65048 26.6501 7.48824C26.5118 7.32601 26.3364 7.19754 26.1379 7.1131C25.9394 7.02866 25.7233 6.9906 25.507 7.00197C22.6021 7.15409 19.7755 7.97289 17.2582 9.39142C8.40423 14.3648 5.37086 25.3794 10.4845 33.9919ZM25.7494 25.1633C28.0628 29.465 31.8754 32.546 38.3659 35.0651C37.2272 36.331 35.8815 37.4054 34.3831 38.245C30.772 40.2291 26.5018 40.7459 22.5011 39.6831C18.5004 38.6203 15.0927 36.0638 13.0191 32.5695C10.9454 29.0752 10.3734 24.9258 11.4275 21.0234C12.4816 17.121 15.0766 13.7813 18.6481 11.7305C20.2466 10.8303 21.9959 10.2116 23.8154 9.90281C22.618 15.9962 23.3897 20.7841 25.7494 25.1633Z" fill="#FFE898"/>
</g>
<path fill-rule="evenodd" clip-rule="evenodd" d="M6.5 36C6.5 35.1716 7.17157 34.5 8 34.5L48 34.5C48.8284 34.5 49.5 35.1716 49.5 36C49.5 36.8284 48.8284 37.5 48 37.5L8 37.5C7.17157 37.5 6.5 36.8284 6.5 36Z" fill="#DBDBDB"/>
<path fill-rule="evenodd" clip-rule="evenodd" d="M0.5 41C0.5 40.1716 1.17157 39.5 2 39.5L38 39.5C38.8284 39.5 39.5 40.1716 39.5 41C39.5 41.8284 38.8284 42.5 38 42.5L2 42.5C1.17157 42.5 0.5 41.8284 0.5 41Z" fill="#DBDBDB"/>
<path fill-rule="evenodd" clip-rule="evenodd" d="M7.5 46C7.5 45.1716 8.17157 44.5 9 44.5L45 44.5C45.8284 44.5 46.5 45.1716 46.5 46C46.5 46.8284 45.8284 47.5 45 47.5L9 47.5C8.17157 47.5 7.5 46.8284 7.5 46Z" fill="#DBDBDB"/>
</svg>
