<svg width="40" height="49" viewBox="0 0 40 49" fill="none" xmlns="http://www.w3.org/2000/svg">
<path fill-rule="evenodd" clip-rule="evenodd" d="M38.6771 47.474L38.7507 47.4004C39.34 46.8111 39.5609 45.8536 39.1927 45.0434L21.9569 1.58576C21.6623 0.701877 20.8521 0.186279 19.9682 0.186279C19.0843 0.186279 18.3477 0.775534 17.9795 1.58576L0.670067 45.117C0.301782 45.9272 0.522753 46.8848 1.25932 47.474C1.99589 48.0633 3.02709 48.2106 3.76366 47.7687L19.9682 38.7825L36.1727 47.7687C36.9829 48.137 37.9405 48.0633 38.6771 47.474ZM18.937 34.3631L6.93091 41.0659L20.0418 8.21489L33.0055 41.0659L20.9994 34.3631C20.3365 33.9948 19.5999 33.9948 18.937 34.3631Z" fill="black"/>
</svg>
