<svg width="17" height="16" viewBox="0 0 17 16" fill="none" xmlns="http://www.w3.org/2000/svg">
<path d="M15.7779 14.6511L12.8112 11.7067C13.9628 10.2699 14.5205 8.44635 14.3696 6.61085C14.2187 4.77535 13.3707 3.06745 12 1.83834C10.6293 0.609226 8.83997 -0.0476794 7.00005 0.00269722C5.16014 0.0530739 3.40943 0.806903 2.10793 2.10918C0.806424 3.41146 0.0530423 5.1632 0.00269561 7.00421C-0.0476511 8.84523 0.608864 10.6356 1.83725 12.0071C3.06563 13.3787 4.77251 14.2272 6.60692 14.3781C8.44133 14.5291 10.2638 13.9711 11.6997 12.8188L14.6424 15.7633C14.7168 15.8383 14.8052 15.8978 14.9027 15.9385C15.0001 15.9791 15.1046 16 15.2102 16C15.3158 16 15.4203 15.9791 15.5177 15.9385C15.6152 15.8978 15.7036 15.8383 15.7779 15.7633C15.9221 15.6141 16.0026 15.4147 16.0026 15.2072C16.0026 14.9997 15.9221 14.8003 15.7779 14.6511ZM7.21362 12.8188C6.10652 12.8188 5.02428 12.4903 4.10376 11.8749C3.18324 11.2595 2.46579 10.3847 2.04212 9.36129C1.61845 8.33786 1.5076 7.2117 1.72358 6.12523C1.93957 5.03875 2.47269 4.04076 3.25552 3.25746C4.03836 2.47416 5.03576 1.94072 6.12159 1.72461C7.20741 1.50849 8.3329 1.61941 9.35573 2.04333C10.3786 2.46725 11.2528 3.18514 11.8679 4.1062C12.4829 5.02727 12.8112 6.11015 12.8112 7.21791C12.8112 8.70337 12.2215 10.128 11.1717 11.1784C10.122 12.2287 8.6982 12.8188 7.21362 12.8188Z" fill="white"/>
</svg>
